<svg width="144" height="40" viewBox="0 0 144 40" fill="none" xmlns="http://www.w3.org/2000/svg">
<g clip-path="url(#clip0)">
<path d="M25.878 11.4188C7.73319 13.6553 -0.699435 26.9518 7.73317 32.9217C10.286 34.7295 14.4703 35.0345 14.4703 35.0345C13.2707 34.7899 8.90721 34.0528 11.0889 30.2561C12.5413 27.7271 19.2208 24.4419 26.7545 22.8279C30.7501 21.9701 31.3643 18.5356 30.9037 15.6285C30.5838 13.611 29.3104 10.9957 25.878 11.4188Z" fill="#0C0B73"/>
<path d="M22.7044 6.24339C22.1105 4.60683 17.3942 3.91358 15.4784 4.00855C8.51733 4.15733 -0.225465 8.99422 0.00444099 20.2792C0.119394 25.841 3.39555 29.5225 5.38806 31.2414C5.39126 31.2382 5.39764 31.2351 5.40084 31.2319C-0.726786 25.5182 4.48276 16.7579 10.5172 12.7931C18.4043 7.61117 23.2983 7.87679 22.7044 6.24339Z" fill="#0C0B73"/>
<path d="M12.219 33.9026C12.6944 34.835 17.0116 35.8016 21.2522 34.1015C26.6542 31.9352 28.1124 28.594 27.4296 27.531C26.2362 25.6724 10.1725 29.3448 12.219 33.9026Z" fill="#0C0B73"/>
<path d="M110.094 23.9918C110.094 26.4328 110.094 27.2944 110.094 29.4483C108.798 29.4483 107.595 29.4483 106.294 29.4483C106.294 23.8496 106.294 18.8224 106.294 13.2223C106.294 11.3556 107.61 10.2069 109.363 10.2069C111.263 10.2069 112.713 10.2069 114.479 10.2069C116.486 10.2748 118.338 11.0253 119.74 12.5044C120.866 13.6949 121.494 15.089 121.494 17.0993C121.494 19.9235 120.075 22.8216 116.525 23.7046C115.702 23.9083 114.771 23.9918 113.602 23.9918C112.433 23.9918 111.459 23.9918 110.094 23.9918ZM110.016 20.5456C111.523 20.5456 112.909 20.5456 114.479 20.5456C116.125 20.5456 117.694 18.6789 117.694 17.0993C117.694 15.089 116.086 14.004 114.951 14.004C113.309 14.004 112.14 14.004 110.626 14.004C110.266 14.0061 110.064 14.3011 110.064 14.6682C110.057 16.5738 110.016 18.2481 110.016 20.5456Z" fill="#06C1D4"/>
<path d="M130.262 16.8121C130.262 18.1278 130.262 19.0573 130.262 20.2583C129.532 20.2583 129.239 20.2583 128.509 20.2583C126.755 20.2583 125.586 21.6943 125.586 23.1302C125.586 23.9224 125.59 24.1297 125.586 24.8533C125.575 26.3366 125.586 27.9437 125.586 29.4483C124.563 29.4483 122.908 29.4459 121.786 29.4483C121.786 28.5867 121.786 23.6365 121.786 22.5558C121.786 19.9712 123.686 16.8121 127.924 16.8121C128.362 16.8121 128.947 16.8121 130.262 16.8121Z" fill="#06C1D4"/>
<path fill-rule="evenodd" clip-rule="evenodd" d="M137.423 29.4483C141.056 29.4483 144 26.5553 144 22.9867C144 19.418 141.056 16.525 137.423 16.525C133.791 16.525 130.847 19.418 130.847 22.9867C130.847 26.5553 133.791 29.4483 137.423 29.4483ZM137.423 26.0021C139.118 26.0021 140.493 24.652 140.493 22.9867C140.493 21.3213 139.118 19.9712 137.423 19.9712C135.728 19.9712 134.354 21.3213 134.354 22.9867C134.354 24.652 135.728 26.0021 137.423 26.0021Z" fill="#06C1D4"/>
<path d="M60.1123 29.4483C58.8331 29.4483 57.5443 29.4483 56.3125 29.4483C56.3125 23.0142 56.3125 16.641 56.3125 10.2069C57.6278 10.2069 58.8805 10.2069 60.1123 10.2069C60.1123 11.0968 60.1123 17.5153 60.1123 17.9609C61.2815 16.0942 65.6658 16.0942 67.2734 17.8173C68.3036 18.9215 68.881 20.4566 68.881 22.5558C68.881 25.7149 68.881 26.5316 68.881 29.4483C67.4196 29.4483 66.5427 29.4483 65.0812 29.4483C65.0812 27.0653 65.1143 24.7024 65.0812 22.3196C65.0683 21.388 64.5001 20.3898 63.4736 20.1148C61.866 19.684 60.1106 20.402 60.1106 22.5997C60.0845 24.8935 60.1123 27.1544 60.1123 29.4483Z" fill="#0C0B73"/>
<path d="M44.5682 13.6531C42.419 13.6531 40.5695 13.6531 38.4827 13.6531C38.4827 12.416 38.4827 11.4207 38.4827 10.2069C43.9484 10.2069 49.3529 10.2069 54.851 10.2069C54.851 11.3783 54.851 12.4117 54.851 13.6531C52.8073 13.6531 49.6833 13.6531 48.6603 13.6531C48.6603 17.2429 48.6603 24.5661 48.6603 29.4469C47.3402 29.4469 45.9431 29.4469 44.6208 29.4469C44.6208 24.2542 44.5682 18.9073 44.5682 13.6531Z" fill="#0C0B73"/>
<path d="M89.0481 29.4483C87.7889 29.4483 86.5 29.4483 85.2493 29.4483C85.2493 27.2334 85.2608 24.8846 85.2493 22.6504C85.2493 21.12 84.3724 19.9712 82.6186 19.9712C80.8649 19.9712 79.988 21.12 79.988 22.6504C79.9669 24.9419 79.988 27.1584 79.988 29.4483C78.7626 29.4483 77.3904 29.4483 76.1882 29.4483C76.1882 26.9184 76.1899 24.997 76.1899 21.8379C76.1899 19.3969 78.5266 16.525 82.6186 16.525C87.003 16.525 89.0206 19.3969 89.0206 21.7968C89.0206 24.1967 89.0481 26.9638 89.0481 29.4483Z" fill="#0C0B73"/>
<path d="M90.8027 10.2069C92.0938 10.2069 93.327 10.2069 94.6025 10.2069C94.6025 16.6249 94.6025 23.0175 94.6025 29.4483C93.3426 29.4483 92.096 29.4483 90.8027 29.4483C90.8027 23.0451 90.8027 16.6525 90.8027 10.2069Z" fill="#0C0B73"/>
<path d="M103.956 16.8121C102.495 18.6788 101.444 20.0088 100.024 21.6943C99.419 22.4122 99.293 22.7826 100.024 23.7046C101.618 25.7149 102.627 26.8636 104.541 29.4483C103.25 29.4483 101.224 29.4483 99.7316 29.4483C98.4406 27.7032 96.6166 25.3471 95.6395 23.9917C95.3599 23.6039 95.2031 23.2319 95.1884 22.843C95.1688 22.3247 95.4014 21.7762 95.9318 21.1199C96.654 20.2262 98.1537 18.5352 99.7316 16.8121C101.166 16.8121 102.451 16.8121 103.956 16.8121Z" fill="#0C0B73"/>
<rect x="70.6348" y="16.8121" width="3.79979" height="12.6361" fill="#0C0B73"/>
<ellipse cx="72.5347" cy="12.3608" rx="2.19219" ry="2.15388" fill="#0C0B73"/>
</g>
<defs>
<clipPath id="clip0">
<rect width="144" height="40" fill="white"/>
</clipPath>
</defs>
</svg>
